# xmcd
#
# Track frame offsets:
#	150
#	19480
#	38187
#	57235
#	77907
#	96920
#	117012
#	137912
#	159390
#	176502
#	198677
#	220622
#	242830
#	260385
#	277317
#	299435
#
# Disc length: 4246 seconds
#
# Revision: 1
# Processed by: cddbd v1.5.1PL0 Copyright (c) Steve Scherf et al.
# Submitted via: CDex 1.50Beta5
#
DISCID=f4109410
DTITLE=宮路オサム - 演歌祝い歌〜結婚式で歌える歌〜
DYEAR=2000
DGENRE=World
TTITLE0=宮路オサム/孫
TTITLE1=坂本冬美/祝い酒
TTITLE2=中村美律子/しあわせ酒
TTITLE3=三船和子/嫁いだ娘の幸せを
TTITLE4=村田英雄/嫁ぐ日よ
TTITLE5=服部浩子/二輪草
TTITLE6=坂本冬美/ふたり咲き
TTITLE7=中村美律子/浪花物語
TTITLE8=三船和子/だんな様
TTITLE9=山川豊/きずな
TTITLE10=中村美律子/人生桜
TTITLE11=服部浩子/夫婦みち
TTITLE12=三船和子/おとうさん
TTITLE13=山川豊/こころ花
TTITLE14=桂銀淑/花のように鳥のように
TTITLE15=孫
EXTD=
EXTT0=
EXTT1=
EXTT2=
EXTT3=
EXTT4=
EXTT5=
EXTT6=
EXTT7=
EXTT8=
EXTT9=
EXTT10=
EXTT11=
EXTT12=
EXTT13=
EXTT14=
EXTT15=
PLAYORDER=
